#!OML:ASF Y:\EmotionMaleHayes\Project 1\Capture day 1\Session 1\Male1.ASF
:FULLY-SPECIFIED
:DEGREES
1102
root 11.0331 16.4316 13.1723 -184.018 142.372 -192.346
lowerback 20.8658 2.80587 4.09448
upperback 10.6749 4.82705 4.69758
thorax -0.129208 2.57041 1.70582
lowerneck -17.4995 7.51144 11.1992
upperneck 35.4211 8.84338 -2.83726
head 16.3075 4.89394 -1.43068
rclavicle 6.59965e-014 -2.90226e-014
rhumerus -18.7658 6.6241 -70.3351
rradius 61.3716
rwrist -18.0685
rhand -22.3648 -34.0297
rfingers 7.12502
rthumb 4.05652 -63.9709
lclavicle 6.59965e-014 -2.90226e-014
lhumerus -14.4475 -12.6407 52.5168
lradius 102.727
lwrist 6.3157
lhand -42.677 -63.4889
lfingers 7.12502
lthumb -15.5473 -34.0939
rfemur 3.42658 -3.47064 11.6006
rtibia 10.7544
rfoot -17.1627 -10.0146
rtoes -27.3952
lfemur -37.4687 21.1183 -11.5526
ltibia 58.5558
lfoot -16.3563 8.01354
ltoes -9.88147
1103
root 11.1104 16.4507 13.1929 -183.567 142.199 -192.336
lowerback 20.9073 2.82406 3.59457
upperback 10.6816 4.75643 4.51384
thorax -0.169788 2.51956 1.80086
lowerneck -17.8394 7.41793 11.6889
upperneck 35.7206 8.79751 -3.58644
head 16.6211 4.83518 -1.83713
rclavicle 4.8901e-014 -4.33351e-014
rhumerus -19.0516 5.87729 -70.8392
rradius 60.803
rwrist -20.4427
rhand -23.0692 -35.0665
rfingers 7.12502
rthumb 3.37625 -65.0195
lclavicle 4.8901e-014 -4.33351e-014
lhumerus -13.2735 -10.3706 53.231
lradius 101.091
lwrist 8.10254
lhand -43.5029 -59.8382
lfingers 7.12502
lthumb -16.3426 -30.5068
rfemur 3.69057 -3.64541 11.3706
rtibia 9.915
rfoot -16.9881 -9.91434
rtoes -26.3509
lfemur -37.6796 21.0465 -10.5735
ltibia 56.305
lfoot -17.5484 10.3203
ltoes -7.68668
1104
root 11.188 16.4676 13.214 -183.047 141.974 -192.276
lowerback 20.9401 2.91664 3.09826
upperback 10.6967 4.77961 4.27201
thorax -0.191683 2.51755 1.81462
lowerneck -17.5975 7.37476 11.1734
upperneck 35.3976 8.86806 -3.43119
head 16.354 4.81439 -1.67871
rclavicle -5.76476e-014 -5.4467e-014
rhumerus -19.1718 4.43535 -71.4545
rradius 59.8346
rwrist -22.1402
rhand -24.7843 -37.0444
rfingers 7.12502
rthumb 1.71992 -67.0172
lclavicle -5.76476e-014 -5.4467e-014
lhumerus -11.8826 -8.90281 53.9765
lradius 99.4764
lwrist 8.20749
lhand -41.3301 -59.1288
lfingers 7.12502
lthumb -14.2497 -29.6376
rfemur 3.83972 -3.50496 11.2188
rtibia 9.16407
rfoot -16.9509 -10.3057
rtoes -25.66
lfemur -37.858 20.9183 -9.72316
ltibia 53.9308
lfoot -18.6925 12.6357
ltoes -4.71226
1105
root 11.2712 16.4803 13.2367 -182.556 141.753 -192.267
lowerback 20.9394 3.03708 2.67899
upperback 10.7113 4.84927 3.98985
thorax -0.187535 2.54288 1.73541
lowerneck -17.9103 7.23698 11.2879
upperneck 35.2162 8.59991 -3.53089
head 16.3238 4.6948 -1.78742
rclavicle -1.17283e-013 2.84262e-014
rhumerus -19.3831 2.77954 -72.2675
rradius 58.9882
rwrist -23.6551
rhand -27.0426 -39.8404
rfingers 7.12502
rthumb -0.461222 -69.8197
lclavicle -1.17283e-013 2.84262e-014
lhumerus -10.5969 -8.00792 54.9618
lradius 97.9145
lwrist 6.93143
lhand -41.0575 -55.9728
lfingers 7.12502
lthumb -13.987 -26.4634
rfemur 4.02149 -3.27847 11.1893
rtibia 8.35774
rfoot -16.7685 -11.0832
rtoes -26.772
lfemur -38.0084 20.8838 -8.9329
ltibia 51.6121
lfoot -19.5882 15.0774
ltoes -4.25584
1106
root 11.3633 16.4862 13.2599 -181.95 141.496 -192.09
lowerback 20.8857 3.11006 2.19973
upperback 10.6752 4.84292 3.63993
thorax -0.209943 2.52882 1.63433
lowerneck -18.2248 7.71389 12.4026
upperneck 35.3548 9.31677 -4.63022
head 16.708 4.97641 -2.29488
rclavicle -3.08116e-015 -1.59028e-015
rhumerus -19.4207 0.537633 -73.3374
rradius 57.6761
rwrist -24.1327
rhand -26.7253 -40.5289
rfingers 7.12502
rthumb -0.154752 -70.5086
lclavicle -3.08116e-015 -1.59028e-015
lhumerus -9.4039 -7.14403 55.9984
lradius 96.1923
lwrist 5.82665
lhand -40.0022 -53.2342
lfingers 7.12502
lthumb -12.9699 -23.6574
rfemur 4.17342 -3.34237 10.8772
rtibia 7.70551
rfoot -16.5372 -11.6431
rtoes -28.6067
lfemur -38.1404 20.7882 -8.41954
ltibia 49.3448
lfoot -20.2118 17.3778
ltoes -4.02292
1107
root 11.4636 16.4853 13.282 -181.315 141.331 -191.853
lowerback 20.8233 3.15765 1.80425
upperback 10.6264 4.81416 3.17382
thorax -0.223785 2.50945 1.36878
lowerneck -18.178 7.54002 12.0578
upperneck 35.0538 9.06021 -4.36959
head 16.4663 4.85595 -2.17782
rclavicle 5.31749e-015 3.60794e-014
rhumerus -21.4962 2.23042 -73.1702
rradius 59.4645
rwrist -27.6929
rhand -26.0821 -41.8338
rfingers 7.12502
rthumb 0.466403 -71.8131
lclavicle 5.31749e-015 3.60794e-014
lhumerus -8.0781 -6.16922 56.768
lradius 94.4101
lwrist 5.82721
lhand -39.0259 -50.8095
lfingers 7.12502
lthumb -12.0286 -21.1752
rfemur 4.19535 -3.333 10.4315
rtibia 7.31163
rfoot -16.5918 -11.9507
rtoes -28.5616
lfemur -38.2554 20.6901 -8.02633
ltibia 47.261
lfoot -21.3812 18.7067
ltoes 2.98432
1108
root 11.5662 16.4756 13.3078 -180.763 141.266 -191.825
lowerback 20.6523 3.21679 1.52457
upperback 10.5745 4.81908 2.74276
thorax -0.180355 2.51046 1.0759
lowerneck -17.7375 7.80897 12.0013
upperneck 34.5684 9.53849 -4.44108
head 16.1711 5.03275 -2.11163
rclavicle -2.00027e-014 -1.85615e-014
rhumerus -22.8441 2.32775 -73.585
rradius 59.9536
rwrist -29.3276
rhand -25.5352 -42.351
rfingers 7.12502
rthumb 0.994661 -72.3285
lclavicle -2.00027e-014 -1.85615e-014
lhumerus -6.81134 -5.0829 57.5935
lradius 92.8208
lwrist 6.96503
lhand -38.8049 -47.2772
lfingers 7.12502
lthumb -11.8155 -17.6305
rfemur 4.07682 -4.47363 9.84338
rtibia 7.12193
rfoot -16.3085 -11.2666
rtoes -29.2212
lfemur -38.6312 20.9658 -7.59228
ltibia 45.8073
lfoot -20.7588 20.0147
ltoes 2.36944
